<?xml version="1.0" standalone="no"?>
<!DOCTYPE svg PUBLIC "-//W3C//DTD SVG 20010904//EN"
 "http://www.w3.org/TR/2001/REC-SVG-20010904/DTD/svg10.dtd">
<svg version="1.0" xmlns="http://www.w3.org/2000/svg"
 width="128.000000pt" height="128.000000pt" viewBox="0 0 128.000000 128.000000"
 preserveAspectRatio="xMidYMid meet">

<g transform="translate(0.000000,128.000000) scale(0.100000,-0.100000)"
fill="#000000" stroke="none">
<path d="M313 1078 c-5 -7 -13 -30 -16 -51 -4 -28 -21 -54 -64 -101 -32 -34
-67 -78 -78 -99 -19 -36 -19 -37 0 -51 27 -21 28 -20 44 16 20 44 81 103 143
135 48 25 63 28 153 28 81 -1 109 -5 147 -22 104 -48 176 -146 186 -256 l5
-59 71 6 c39 4 88 10 109 13 29 4 37 2 37 -10 0 -21 -42 -35 -130 -43 -41 -3
-83 -10 -92 -15 -38 -20 -15 -29 77 -29 74 0 95 -3 95 -14 0 -18 -44 -26 -137
-26 l-75 0 -42 -43 c-53 -54 -118 -86 -204 -99 -112 -16 -136 -26 -180 -69
-48 -48 -54 -84 -22 -136 29 -49 75 -58 290 -58 159 0 198 4 275 23 119 30
241 90 300 148 l48 46 -6 97 c-8 128 -47 276 -101 387 -27 54 -48 112 -52 145
-4 30 -12 57 -18 61 -6 4 -40 10 -76 14 -36 3 -82 15 -102 25 -21 11 -68 26
-105 35 -65 15 -95 15 -333 2 -14 -1 -50 2 -81 6 -41 6 -58 5 -66 -6z"/>
<path d="M327 782 c-20 -22 -22 -73 -5 -90 31 -31 88 3 88 54 0 24 -29 54 -52
54 -8 0 -22 -8 -31 -18z"/>
<path d="M596 738 c-29 -41 -13 -98 28 -98 48 0 75 70 40 104 -22 22 -50 20
-68 -6z"/>
<path d="M110 732 c0 -11 11 -24 25 -30 34 -16 35 -15 35 6 0 11 -11 24 -25
30 -34 16 -35 15 -35 -6z"/>
<path d="M81 657 c-16 -43 -40 -179 -47 -273 l-7 -89 46 -42 c25 -23 68 -53
95 -67 l51 -26 10 33 c6 17 25 52 41 77 46 69 42 116 -15 180 -54 61 -72 94
-86 158 -6 32 -16 52 -27 55 -9 3 -25 8 -34 12 -13 5 -20 0 -27 -18z"/>
<path d="M360 615 c0 -14 33 -85 40 -85 4 0 19 9 33 20 l25 20 16 -25 c9 -14
22 -25 29 -25 16 1 67 46 67 60 0 16 -12 12 -38 -12 l-24 -23 -18 23 c-10 12
-20 28 -23 35 -3 8 -13 4 -31 -13 -23 -21 -29 -22 -36 -10 -5 8 -10 21 -10 28
0 6 -7 12 -15 12 -8 0 -15 -2 -15 -5z"/>
</g>
</svg>
